<svg xmlns="http://www.w3.org/2000/svg" width="392" height="46" viewBox="0 0 392 46">
  <path d="M34 1.225c-1.8 0-3.3 1.3-3.3 3v28.4L6.3 2.425c-.7-.8-1.7-1.3-2.8-1.3-1.9 0-3.5 1.4-3.5 3.2v36.5c0 1.6 1.5 3 3.3 3 1.8 0 3.3-1.3 3.3-3v-28.5l24.4 30.2c.6.8 1.6 1.2 2.6 1.2h.4c1.8 0 3.3-1.3 3.3-3v-36.7c-.1-1.5-1.5-2.8-3.3-2.8m47.1 0c-1.7 0-3.1 1.3-3.1 3v23.3c0 5.5-3.7 11.5-11.7 11.5-8 0-11.6-5.9-11.6-11.5v-23.3c0-1.7-1.4-3-3.1-3-1.7 0-3.1 1.3-3.1 3v23.3c0 9.9 7.7 17.4 17.9 17.4s18-7.5 18-17.4v-23.3c-.2-1.7-1.6-3-3.3-3m55.1 0c-1.5 0-2.8.7-3.5 1.8l-14.9 28.3-14.8-28.2-.1-.1c-.8-1.1-2-1.8-3.5-1.8-2.2 0-4.1 1.7-4.1 3.8v35.8c0 1.6 1.4 3 3.1 3 1.7 0 3.1-1.3 3.1-3v-28l12.3 23.7.1.1c.8 1.2 2.2 1.9 3.7 1.9s2.9-.7 3.7-1.9l12.9-24.1v28.3c0 1.6 1.4 3 3.1 3 1.7 0 3.1-1.3 3.1-3v-35.8c-.1-2.1-1.9-3.8-4.2-3.8m78.5 1.3c-.6-.8-1.7-1.3-2.8-1.3-1.5 0-2.8.8-3.2 2.1l-10.6 30.6-11.3-30c-.6-1.6-2.3-2.7-4.2-2.7-1.9 0-3.6 1.1-4.2 2.7l-11.3 30-10.6-30.6c-.4-1.3-1.7-2.1-3.2-2.1-1.1 0-2.2.5-2.8 1.3-.6.7-.7 1.7-.4 2.5l12.6 36c.6 1.6 2.3 2.8 4.3 2.8 1.9 0 3.6-1.1 4.2-2.7l11.4-30.3 11.4 30.3c.6 1.6 2.3 2.7 4.3 2.7s3.7-1.1 4.3-2.8l12.6-36c.2-.8.1-1.8-.5-2.5m66.1 5.7c0-.7.7-1.2 1.5-1.2h11.1c4.6 0 8.3 3.3 8.3 7.4 0 4.1-3.7 7.4-8.3 7.4h-12.7v-13.6zm26.8 31.1l-8.5-12.8c5.7-2.1 9.2-7.2 8.9-12.8-.4-7-7-12.4-14.9-12.4H279c-2.5 0-4.4 1.9-4.4 4.1v35.4c0 1.6 1.4 2.9 3.1 2.9h.1c1.7 0 3.1-1.3 3.1-2.9v-13.3h11.8l9.7 14.9c.6.9 1.6 1.4 2.7 1.4 1.2 0 2.2-.6 2.8-1.6.3-1 .2-2.1-.3-2.9m45.4-.2l-14.6-20.4 13.5-12.7c.9-.8 1.2-2 .8-3-.4-1.2-1.5-1.9-2.8-1.9-.9 0-1.6.6-2.1 1.1l-.2.2-22 19.8-.1-18.2c0-1.6-1.4-2.8-3.1-2.8h-.2c-1.7 0-3 1.3-3 2.8v36.8c0 1.6 1.4 2.9 3 2.9h.2c1.7 0 3-1.3 3-2.9v-10.4l8.6-7.4 14.5 19.9.1.1.1.1c.6.5 1.3.8 2.1.8 1.3 0 2.4-.7 2.9-1.9.3-1 .1-2.2-.7-2.9m23.3-20c-6.8-2.1-9.8-3.3-9.8-6.9 0-3.8 3.4-6.3 8.5-6.3 4.3 0 7.5 1.7 9.5 5 .8 1.4 2.6 1.9 4.1 1.2h.1c.7-.4 1.3-1 1.5-1.8.2-.7.1-1.5-.3-2.2-3-5.1-8.4-8-14.8-8-8.8 0-14.9 5.1-14.9 12.4 0 8.1 7.6 10.4 14.9 12.6l.2.1c7 2.1 10.4 3.7 10.4 7.3 0 4.2-3.6 6.6-9.7 6.6-5.5 0-9.6-2.1-11.4-5.8-.7-1.5-2.6-2.2-4.1-1.4 0 0-.1 0-.1.1l-.2.1c-1.4.7-1.9 2.4-1.3 3.8 2.7 5.8 9.1 9.2 17 9.2 9.6 0 16-5.1 16-12.6.1-8.6-8.3-11.1-15.6-13.4m-133.7 19.2c-8.8 0-15.9-7.1-15.9-15.9s7.1-15.9 15.9-15.9 15.9 7.1 15.9 15.9-7.1 15.9-15.9 15.9m0-38.3c-12.4 0-22.5 10.1-22.5 22.5s10.1 22.5 22.5 22.5 22.5-10.1 22.5-22.5c0-12.5-10-22.5-22.5-22.5"/>
</svg>
